<mxfile host="app.diagrams.net" modified="2023-12-14T15:35:39.742Z" agent="Mozilla/5.0 (Windows NT 10.0; Win64; x64) AppleWebKit/537.36 (KHTML, like Gecko) Chrome/120.0.0.0 Safari/537.36" etag="4v9izmDCbnOMPIk2xqrb" version="22.1.8" type="google">
  <diagram name="Pagina-1" id="9D4lfbzUUJnUj3Vq5h7a">
    <mxGraphModel grid="1" page="1" gridSize="10" guides="1" tooltips="1" connect="1" arrows="1" fold="1" pageScale="1" pageWidth="827" pageHeight="1169" math="0" shadow="0">
      <root>
        <mxCell id="0" />
        <mxCell id="1" parent="0" />
        <mxCell id="tYbJVzSkGfq-g5frL8zb-3" value="" style="edgeStyle=orthogonalEdgeStyle;rounded=0;orthogonalLoop=1;jettySize=auto;html=1;" edge="1" parent="1" source="tYbJVzSkGfq-g5frL8zb-1" target="tYbJVzSkGfq-g5frL8zb-2">
          <mxGeometry relative="1" as="geometry" />
        </mxCell>
        <mxCell id="tYbJVzSkGfq-g5frL8zb-1" value="START" style="ellipse;whiteSpace=wrap;html=1;" vertex="1" parent="1">
          <mxGeometry x="33" y="10" width="120" height="80" as="geometry" />
        </mxCell>
        <mxCell id="pgfOLzISUxI_B2i6HKFk-3" style="edgeStyle=orthogonalEdgeStyle;rounded=0;orthogonalLoop=1;jettySize=auto;html=1;exitX=0.5;exitY=1;exitDx=0;exitDy=0;entryX=0.5;entryY=0;entryDx=0;entryDy=0;" edge="1" parent="1" source="tYbJVzSkGfq-g5frL8zb-2" target="tYbJVzSkGfq-g5frL8zb-4">
          <mxGeometry relative="1" as="geometry" />
        </mxCell>
        <mxCell id="pgfOLzISUxI_B2i6HKFk-4" value="SI" style="edgeLabel;html=1;align=center;verticalAlign=middle;resizable=0;points=[];" vertex="1" connectable="0" parent="pgfOLzISUxI_B2i6HKFk-3">
          <mxGeometry x="-0.2" relative="1" as="geometry">
            <mxPoint as="offset" />
          </mxGeometry>
        </mxCell>
        <mxCell id="pgfOLzISUxI_B2i6HKFk-21" value="" style="edgeStyle=orthogonalEdgeStyle;rounded=0;orthogonalLoop=1;jettySize=auto;html=1;" edge="1" parent="1" source="tYbJVzSkGfq-g5frL8zb-2" target="pgfOLzISUxI_B2i6HKFk-20">
          <mxGeometry relative="1" as="geometry" />
        </mxCell>
        <mxCell id="pgfOLzISUxI_B2i6HKFk-22" value="NO" style="edgeLabel;html=1;align=center;verticalAlign=middle;resizable=0;points=[];" vertex="1" connectable="0" parent="pgfOLzISUxI_B2i6HKFk-21">
          <mxGeometry x="-0.122" y="-3" relative="1" as="geometry">
            <mxPoint as="offset" />
          </mxGeometry>
        </mxCell>
        <mxCell id="tYbJVzSkGfq-g5frL8zb-2" value="Ho ancora fogli da scansionare?" style="rhombus;whiteSpace=wrap;html=1;" vertex="1" parent="1">
          <mxGeometry x="10" y="130" width="166" height="80" as="geometry" />
        </mxCell>
        <mxCell id="pgfOLzISUxI_B2i6HKFk-8" value="" style="edgeStyle=orthogonalEdgeStyle;rounded=0;orthogonalLoop=1;jettySize=auto;html=1;" edge="1" parent="1" source="tYbJVzSkGfq-g5frL8zb-4" target="pgfOLzISUxI_B2i6HKFk-5">
          <mxGeometry relative="1" as="geometry" />
        </mxCell>
        <mxCell id="tYbJVzSkGfq-g5frL8zb-4" value="Prendo un documento" style="rounded=0;whiteSpace=wrap;html=1;" vertex="1" parent="1">
          <mxGeometry x="33" y="260" width="120" height="60" as="geometry" />
        </mxCell>
        <mxCell id="N3wln7EAqVzwOZXVGCjH-3" style="edgeStyle=orthogonalEdgeStyle;rounded=0;orthogonalLoop=1;jettySize=auto;html=1;entryX=0.5;entryY=0;entryDx=0;entryDy=0;" edge="1" parent="1" source="N3wln7EAqVzwOZXVGCjH-1" target="N3wln7EAqVzwOZXVGCjH-2">
          <mxGeometry relative="1" as="geometry" />
        </mxCell>
        <mxCell id="N3wln7EAqVzwOZXVGCjH-1" value="START" style="ellipse;whiteSpace=wrap;html=1;" vertex="1" parent="1">
          <mxGeometry x="354" y="620" width="120" height="80" as="geometry" />
        </mxCell>
        <mxCell id="N3wln7EAqVzwOZXVGCjH-7" style="edgeStyle=orthogonalEdgeStyle;rounded=0;orthogonalLoop=1;jettySize=auto;html=1;entryX=0.5;entryY=0;entryDx=0;entryDy=0;" edge="1" parent="1" source="N3wln7EAqVzwOZXVGCjH-2" target="N3wln7EAqVzwOZXVGCjH-4">
          <mxGeometry relative="1" as="geometry" />
        </mxCell>
        <mxCell id="N3wln7EAqVzwOZXVGCjH-8" value="SI" style="edgeLabel;html=1;align=center;verticalAlign=middle;resizable=0;points=[];" connectable="0" vertex="1" parent="N3wln7EAqVzwOZXVGCjH-7">
          <mxGeometry x="-0.28" y="1" relative="1" as="geometry">
            <mxPoint as="offset" />
          </mxGeometry>
        </mxCell>
        <mxCell id="N3wln7EAqVzwOZXVGCjH-37" style="edgeStyle=orthogonalEdgeStyle;rounded=0;orthogonalLoop=1;jettySize=auto;html=1;entryX=0;entryY=0.5;entryDx=0;entryDy=0;" edge="1" parent="1" source="N3wln7EAqVzwOZXVGCjH-2" target="N3wln7EAqVzwOZXVGCjH-30">
          <mxGeometry relative="1" as="geometry" />
        </mxCell>
        <mxCell id="N3wln7EAqVzwOZXVGCjH-38" value="No" style="edgeLabel;html=1;align=center;verticalAlign=middle;resizable=0;points=[];" connectable="0" vertex="1" parent="N3wln7EAqVzwOZXVGCjH-37">
          <mxGeometry x="-0.0235" y="3" relative="1" as="geometry">
            <mxPoint as="offset" />
          </mxGeometry>
        </mxCell>
        <mxCell id="N3wln7EAqVzwOZXVGCjH-2" value="Ho ancora fogli della pratica da&amp;nbsp; scansionare?" style="rhombus;whiteSpace=wrap;html=1;" vertex="1" parent="1">
          <mxGeometry x="304" y="730" width="220" height="110" as="geometry" />
        </mxCell>
        <mxCell id="pgfOLzISUxI_B2i6HKFk-12" value="" style="edgeStyle=orthogonalEdgeStyle;rounded=0;orthogonalLoop=1;jettySize=auto;html=1;" edge="1" parent="1" source="pgfOLzISUxI_B2i6HKFk-5" target="pgfOLzISUxI_B2i6HKFk-11">
          <mxGeometry relative="1" as="geometry" />
        </mxCell>
        <mxCell id="pgfOLzISUxI_B2i6HKFk-5" value="Scansiono il fronte" style="rounded=0;whiteSpace=wrap;html=1;" vertex="1" parent="1">
          <mxGeometry x="33" y="360" width="120" height="60" as="geometry" />
        </mxCell>
        <mxCell id="N3wln7EAqVzwOZXVGCjH-35" value="" style="edgeStyle=orthogonalEdgeStyle;rounded=0;orthogonalLoop=1;jettySize=auto;html=1;" edge="1" parent="1" source="N3wln7EAqVzwOZXVGCjH-4" target="N3wln7EAqVzwOZXVGCjH-34">
          <mxGeometry relative="1" as="geometry" />
        </mxCell>
        <mxCell id="N3wln7EAqVzwOZXVGCjH-4" value="Scansiono la facciata del foglio" style="whiteSpace=wrap;html=1;" vertex="1" parent="1">
          <mxGeometry x="354" y="880" width="120" height="60" as="geometry" />
        </mxCell>
        <mxCell id="pgfOLzISUxI_B2i6HKFk-14" value="" style="edgeStyle=orthogonalEdgeStyle;rounded=0;orthogonalLoop=1;jettySize=auto;html=1;" edge="1" parent="1" source="pgfOLzISUxI_B2i6HKFk-11" target="pgfOLzISUxI_B2i6HKFk-13">
          <mxGeometry relative="1" as="geometry" />
        </mxCell>
        <mxCell id="pgfOLzISUxI_B2i6HKFk-11" value="giro il foglio" style="whiteSpace=wrap;html=1;rounded=0;" vertex="1" parent="1">
          <mxGeometry x="33" y="450" width="120" height="60" as="geometry" />
        </mxCell>
        <mxCell id="pgfOLzISUxI_B2i6HKFk-16" value="" style="edgeStyle=orthogonalEdgeStyle;rounded=0;orthogonalLoop=1;jettySize=auto;html=1;" edge="1" parent="1" source="pgfOLzISUxI_B2i6HKFk-13" target="pgfOLzISUxI_B2i6HKFk-15">
          <mxGeometry relative="1" as="geometry" />
        </mxCell>
        <mxCell id="pgfOLzISUxI_B2i6HKFk-13" value="scansiono il retro" style="whiteSpace=wrap;html=1;rounded=0;" vertex="1" parent="1">
          <mxGeometry x="33" y="540" width="120" height="60" as="geometry" />
        </mxCell>
        <mxCell id="pgfOLzISUxI_B2i6HKFk-18" value="" style="edgeStyle=orthogonalEdgeStyle;rounded=0;orthogonalLoop=1;jettySize=auto;html=1;" edge="1" parent="1" source="pgfOLzISUxI_B2i6HKFk-15" target="pgfOLzISUxI_B2i6HKFk-17">
          <mxGeometry relative="1" as="geometry" />
        </mxCell>
        <mxCell id="pgfOLzISUxI_B2i6HKFk-15" value="Archivio il documento" style="whiteSpace=wrap;html=1;rounded=0;" vertex="1" parent="1">
          <mxGeometry x="33" y="640" width="120" height="60" as="geometry" />
        </mxCell>
        <mxCell id="pgfOLzISUxI_B2i6HKFk-19" style="edgeStyle=orthogonalEdgeStyle;rounded=0;orthogonalLoop=1;jettySize=auto;html=1;exitX=0;exitY=0.5;exitDx=0;exitDy=0;entryX=0;entryY=0.5;entryDx=0;entryDy=0;" edge="1" parent="1" source="pgfOLzISUxI_B2i6HKFk-17" target="tYbJVzSkGfq-g5frL8zb-2">
          <mxGeometry relative="1" as="geometry" />
        </mxCell>
        <mxCell id="pgfOLzISUxI_B2i6HKFk-17" value="Elimino il documento cartaceo" style="whiteSpace=wrap;html=1;rounded=0;" vertex="1" parent="1">
          <mxGeometry x="33" y="740" width="120" height="60" as="geometry" />
        </mxCell>
        <mxCell id="N3wln7EAqVzwOZXVGCjH-17" value="" style="edgeStyle=orthogonalEdgeStyle;rounded=0;orthogonalLoop=1;jettySize=auto;html=1;" edge="1" parent="1" source="N3wln7EAqVzwOZXVGCjH-13" target="N3wln7EAqVzwOZXVGCjH-16">
          <mxGeometry relative="1" as="geometry" />
        </mxCell>
        <mxCell id="N3wln7EAqVzwOZXVGCjH-19" value="No" style="edgeLabel;html=1;align=center;verticalAlign=middle;resizable=0;points=[];" connectable="0" vertex="1" parent="N3wln7EAqVzwOZXVGCjH-17">
          <mxGeometry x="-0.0286" y="2" relative="1" as="geometry">
            <mxPoint as="offset" />
          </mxGeometry>
        </mxCell>
        <mxCell id="N3wln7EAqVzwOZXVGCjH-21" value="" style="edgeStyle=orthogonalEdgeStyle;rounded=0;orthogonalLoop=1;jettySize=auto;html=1;" edge="1" parent="1" source="N3wln7EAqVzwOZXVGCjH-13" target="N3wln7EAqVzwOZXVGCjH-20">
          <mxGeometry relative="1" as="geometry" />
        </mxCell>
        <mxCell id="N3wln7EAqVzwOZXVGCjH-22" value="Si" style="edgeLabel;html=1;align=center;verticalAlign=middle;resizable=0;points=[];" connectable="0" vertex="1" parent="N3wln7EAqVzwOZXVGCjH-21">
          <mxGeometry x="-0.1667" y="1" relative="1" as="geometry">
            <mxPoint as="offset" />
          </mxGeometry>
        </mxCell>
        <mxCell id="N3wln7EAqVzwOZXVGCjH-13" value="Ho altre facciate da scansionare?" style="rhombus;whiteSpace=wrap;html=1;" vertex="1" parent="1">
          <mxGeometry x="341" y="1060" width="146" height="100" as="geometry" />
        </mxCell>
        <mxCell id="pgfOLzISUxI_B2i6HKFk-20" value="END" style="ellipse;whiteSpace=wrap;html=1;" vertex="1" parent="1">
          <mxGeometry x="299" y="130" width="141" height="80" as="geometry" />
        </mxCell>
        <mxCell id="N3wln7EAqVzwOZXVGCjH-28" style="edgeStyle=orthogonalEdgeStyle;rounded=0;orthogonalLoop=1;jettySize=auto;html=1;entryX=0;entryY=0.5;entryDx=0;entryDy=0;" edge="1" parent="1" source="N3wln7EAqVzwOZXVGCjH-16" target="N3wln7EAqVzwOZXVGCjH-2">
          <mxGeometry relative="1" as="geometry">
            <Array as="points">
              <mxPoint x="240" y="785" />
            </Array>
          </mxGeometry>
        </mxCell>
        <mxCell id="N3wln7EAqVzwOZXVGCjH-16" value="Elimino / Ripongo il cartaceo&amp;nbsp;" style="whiteSpace=wrap;html=1;" vertex="1" parent="1">
          <mxGeometry x="140" y="1080" width="120" height="60" as="geometry" />
        </mxCell>
        <mxCell id="N3wln7EAqVzwOZXVGCjH-40" style="edgeStyle=orthogonalEdgeStyle;rounded=0;orthogonalLoop=1;jettySize=auto;html=1;entryX=1;entryY=0.5;entryDx=0;entryDy=0;" edge="1" parent="1" source="N3wln7EAqVzwOZXVGCjH-20" target="N3wln7EAqVzwOZXVGCjH-4">
          <mxGeometry relative="1" as="geometry">
            <Array as="points">
              <mxPoint x="520" y="1280" />
              <mxPoint x="520" y="910" />
            </Array>
          </mxGeometry>
        </mxCell>
        <mxCell id="N3wln7EAqVzwOZXVGCjH-20" value="Giro il foglio" style="whiteSpace=wrap;html=1;" vertex="1" parent="1">
          <mxGeometry x="354" y="1250" width="120" height="60" as="geometry" />
        </mxCell>
        <mxCell id="N3wln7EAqVzwOZXVGCjH-24" value="END" style="ellipse;whiteSpace=wrap;html=1;" vertex="1" parent="1">
          <mxGeometry x="690" y="870" width="120" height="80" as="geometry" />
        </mxCell>
        <mxCell id="N3wln7EAqVzwOZXVGCjH-32" style="edgeStyle=orthogonalEdgeStyle;rounded=0;orthogonalLoop=1;jettySize=auto;html=1;entryX=0.5;entryY=0;entryDx=0;entryDy=0;" edge="1" parent="1" source="N3wln7EAqVzwOZXVGCjH-30" target="N3wln7EAqVzwOZXVGCjH-24">
          <mxGeometry relative="1" as="geometry" />
        </mxCell>
        <mxCell id="N3wln7EAqVzwOZXVGCjH-30" value="Archivio i file" style="whiteSpace=wrap;html=1;" vertex="1" parent="1">
          <mxGeometry x="690" y="755" width="120" height="60" as="geometry" />
        </mxCell>
        <mxCell id="N3wln7EAqVzwOZXVGCjH-36" style="edgeStyle=orthogonalEdgeStyle;rounded=0;orthogonalLoop=1;jettySize=auto;html=1;entryX=0.5;entryY=0;entryDx=0;entryDy=0;" edge="1" parent="1" source="N3wln7EAqVzwOZXVGCjH-34" target="N3wln7EAqVzwOZXVGCjH-13">
          <mxGeometry relative="1" as="geometry" />
        </mxCell>
        <mxCell id="N3wln7EAqVzwOZXVGCjH-34" value="Rinomino il file in ordine crescente" style="whiteSpace=wrap;html=1;" vertex="1" parent="1">
          <mxGeometry x="354" y="970" width="120" height="60" as="geometry" />
        </mxCell>
      </root>
    </mxGraphModel>
  </diagram>
</mxfile>
